<?xml version="1.0" encoding="UTF-8" standalone="no"?><!DOCTYPE svg PUBLIC "-//W3C//DTD SVG 1.1//EN" "http://www.w3.org/Graphics/SVG/1.1/DTD/svg11.dtd"><svg width="100%" height="100%" viewBox="0 0 128 128" version="1.1" xmlns="http://www.w3.org/2000/svg" xmlns:xlink="http://www.w3.org/1999/xlink" xml:space="preserve" xmlns:serif="http://www.serif.com/" style="fill-rule:evenodd;clip-rule:evenodd;stroke-linejoin:round;stroke-miterlimit:2;"><g id="OKcontract-logo" serif:id="OKcontract logo"><rect id="OKcontract-logo1" serif:id="OKcontract logo" x="0" y="0" width="128" height="128" style="fill:none;"/><g><path d="M24.636,101.941c-0.543,0.624 -1.214,1.118 -2.011,1.482c-0.797,0.364 -1.716,0.546 -2.756,0.546c-0.948,-0 -1.823,-0.156 -2.626,-0.468c-0.803,-0.312 -1.5,-0.754 -2.089,-1.326c-0.589,-0.572 -1.052,-1.257 -1.387,-2.055c-0.335,-0.797 -0.502,-1.675 -0.502,-2.634c-0,-0.983 0.17,-1.872 0.511,-2.67c0.341,-0.797 0.812,-1.476 1.413,-2.037c0.601,-0.56 1.306,-0.99 2.114,-1.291c0.809,-0.3 1.682,-0.451 2.618,-0.451c0.867,0 1.719,0.153 2.557,0.46c0.838,0.306 1.516,0.754 2.036,1.343l-2.01,2.011c-0.278,-0.381 -0.642,-0.665 -1.092,-0.849c-0.451,-0.185 -0.913,-0.278 -1.387,-0.278c-0.52,0 -0.997,0.095 -1.43,0.286c-0.434,0.191 -0.806,0.454 -1.118,0.789c-0.312,0.335 -0.555,0.731 -0.728,1.187c-0.174,0.457 -0.26,0.957 -0.26,1.5c-0,0.554 0.086,1.063 0.26,1.525c0.173,0.462 0.413,0.858 0.719,1.187c0.306,0.33 0.673,0.587 1.101,0.772c0.427,0.185 0.895,0.277 1.404,0.277c0.589,0 1.104,-0.115 1.543,-0.346c0.439,-0.232 0.791,-0.532 1.057,-0.902l2.063,1.942Z" style="fill:#fff;fill-rule:nonzero;"/><path d="M39.074,97.451c0,0.971 -0.167,1.858 -0.502,2.661c-0.336,0.803 -0.801,1.491 -1.396,2.063c-0.595,0.572 -1.303,1.014 -2.123,1.326c-0.821,0.312 -1.711,0.468 -2.67,0.468c-0.959,-0 -1.846,-0.156 -2.661,-0.468c-0.814,-0.312 -1.519,-0.754 -2.114,-1.326c-0.595,-0.572 -1.061,-1.26 -1.396,-2.063c-0.335,-0.803 -0.502,-1.69 -0.502,-2.661c-0,-0.982 0.167,-1.869 0.502,-2.661c0.335,-0.791 0.801,-1.465 1.396,-2.019c0.595,-0.555 1.3,-0.982 2.114,-1.283c0.815,-0.3 1.702,-0.451 2.661,-0.451c0.959,0 1.849,0.151 2.67,0.451c0.82,0.301 1.528,0.728 2.123,1.283c0.595,0.554 1.06,1.228 1.396,2.019c0.335,0.792 0.502,1.679 0.502,2.661Zm-3.172,0c0,-0.532 -0.087,-1.028 -0.26,-1.491c-0.173,-0.462 -0.413,-0.858 -0.719,-1.187c-0.307,-0.329 -0.676,-0.589 -1.11,-0.78c-0.433,-0.191 -0.91,-0.286 -1.43,-0.286c-0.52,-0 -0.994,0.095 -1.421,0.286c-0.428,0.191 -0.798,0.451 -1.11,0.78c-0.312,0.329 -0.551,0.725 -0.719,1.187c-0.167,0.463 -0.251,0.959 -0.251,1.491c-0,0.555 0.086,1.066 0.26,1.534c0.173,0.468 0.413,0.87 0.719,1.205c0.306,0.335 0.673,0.598 1.101,0.789c0.427,0.19 0.901,0.286 1.421,0.286c0.52,-0 0.994,-0.096 1.422,-0.286c0.427,-0.191 0.797,-0.454 1.109,-0.789c0.312,-0.335 0.555,-0.737 0.728,-1.205c0.173,-0.468 0.26,-0.979 0.26,-1.534Z" style="fill:#fff;fill-rule:nonzero;"/><path d="M49.315,103.639l-4.94,-8.025l-0.052,-0l0.069,8.025l-2.877,0l-0,-12.272l3.38,-0l4.923,8.008l0.052,0l-0.07,-8.008l2.878,-0l-0,12.272l-3.363,0Z" style="fill:#fff;fill-rule:nonzero;"/><path d="M60.942,93.898l0,9.741l-2.964,0l0,-9.741l-3.467,-0l0,-2.531l9.898,-0l0,2.531l-3.467,-0Z" style="fill:#fff;fill-rule:nonzero;"/><path d="M72.812,103.639l-2.652,-4.871l-1.005,0l-0,4.871l-2.912,0l-0,-12.272l4.68,-0c0.589,-0 1.164,0.06 1.725,0.182c0.56,0.121 1.063,0.326 1.508,0.615c0.445,0.289 0.8,0.67 1.066,1.144c0.266,0.474 0.399,1.063 0.399,1.768c-0,0.832 -0.226,1.531 -0.677,2.098c-0.45,0.566 -1.074,0.97 -1.872,1.213l3.207,5.252l-3.467,0Zm-0.121,-8.511c0,-0.289 -0.061,-0.523 -0.182,-0.702c-0.121,-0.179 -0.277,-0.318 -0.468,-0.416c-0.191,-0.098 -0.404,-0.165 -0.641,-0.199c-0.237,-0.035 -0.466,-0.052 -0.685,-0.052l-1.577,-0l-0,2.86l1.404,-0c0.242,-0 0.491,-0.02 0.745,-0.061c0.254,-0.04 0.485,-0.112 0.693,-0.216c0.208,-0.104 0.379,-0.255 0.512,-0.451c0.133,-0.197 0.199,-0.451 0.199,-0.763Z" style="fill:#fff;fill-rule:nonzero;"/><path d="M87.019,103.639l-0.954,-2.409l-4.749,-0l-0.902,2.409l-3.224,0l5.148,-12.272l2.878,-0l5.096,12.272l-3.293,0Zm-3.294,-8.996l-1.56,4.212l3.086,0l-1.526,-4.212Z" style="fill:#fff;fill-rule:nonzero;"/><path d="M102.304,101.941c-0.544,0.624 -1.214,1.118 -2.011,1.482c-0.798,0.364 -1.716,0.546 -2.756,0.546c-0.948,-0 -1.823,-0.156 -2.626,-0.468c-0.804,-0.312 -1.5,-0.754 -2.089,-1.326c-0.59,-0.572 -1.052,-1.257 -1.387,-2.055c-0.335,-0.797 -0.503,-1.675 -0.503,-2.634c0,-0.983 0.171,-1.872 0.512,-2.67c0.341,-0.797 0.812,-1.476 1.412,-2.037c0.601,-0.56 1.306,-0.99 2.115,-1.291c0.809,-0.3 1.682,-0.451 2.618,-0.451c0.866,0 1.719,0.153 2.557,0.46c0.837,0.306 1.516,0.754 2.036,1.343l-2.01,2.011c-0.278,-0.381 -0.642,-0.665 -1.093,-0.849c-0.45,-0.185 -0.912,-0.278 -1.386,-0.278c-0.52,0 -0.997,0.095 -1.43,0.286c-0.434,0.191 -0.806,0.454 -1.118,0.789c-0.312,0.335 -0.555,0.731 -0.728,1.187c-0.174,0.457 -0.26,0.957 -0.26,1.5c-0,0.554 0.086,1.063 0.26,1.525c0.173,0.462 0.413,0.858 0.719,1.187c0.306,0.33 0.673,0.587 1.101,0.772c0.427,0.185 0.895,0.277 1.404,0.277c0.589,0 1.103,-0.115 1.542,-0.346c0.44,-0.232 0.792,-0.532 1.058,-0.902l2.063,1.942Z" style="fill:#fff;fill-rule:nonzero;"/><path d="M109.844,93.898l-0,9.741l-2.964,0l-0,-9.741l-3.467,-0l0,-2.531l9.898,-0l-0,2.531l-3.467,-0Z" style="fill:#fff;fill-rule:nonzero;"/></g><g><path d="M41.17,82.359c14.819,-0.577 26.386,-12.955 25.815,-27.625c-0.404,-10.381 -6.78,-19.146 -15.725,-23.179l-32.42,40.459c5.132,6.585 13.299,10.697 22.33,10.345Z" style="fill:url(#_Linear1);"/><path d="M15.953,67.403c0.068,0.14 1.142,2.101 1.142,2.101l31.347,-39.014c0,0 -4.397,-1.482 -9.342,-1.29c-14.819,0.575 -26.386,12.955 -25.815,27.625c0.148,3.792 1.092,7.369 2.668,10.578Z" style="fill:url(#_Linear2);"/></g><g><path d="M96.632,82.134l-23.028,-26.477l21.285,-26.477l16.006,-0l-21.743,26.477l24.159,26.477l-16.679,-0Z" style="fill:url(#_Linear3);fill-rule:nonzero;"/><path d="M71.417,53.716l-0,-24.533l19.68,-0l-19.68,24.533Z" style="fill:url(#_Linear4);fill-rule:nonzero;"/></g></g><defs><linearGradient id="_Linear1" x1="0" y1="0" x2="1" y2="0" gradientUnits="userSpaceOnUse" gradientTransform="matrix(53.7002,-2.09106,-2.07001,-53.1596,13.2849,56.8251)"><stop offset="0" style="stop-color:#ea06e7;stop-opacity:1"/><stop offset="0.56" style="stop-color:#eb485b;stop-opacity:1"/><stop offset="1" style="stop-color:#ec641f;stop-opacity:1"/></linearGradient><linearGradient id="_Linear2" x1="0" y1="0" x2="1" y2="0" gradientUnits="userSpaceOnUse" gradientTransform="matrix(53.7002,-2.09106,-2.07001,-53.1596,13.2849,56.8251)"><stop offset="0" style="stop-color:#ea06e7;stop-opacity:1"/><stop offset="0.56" style="stop-color:#eb485b;stop-opacity:1"/><stop offset="1" style="stop-color:#ec641f;stop-opacity:1"/></linearGradient><linearGradient id="_Linear3" x1="0" y1="0" x2="1" y2="0" gradientUnits="userSpaceOnUse" gradientTransform="matrix(39.707,0,0,52.954,73.6039,55.6566)"><stop offset="0" style="stop-color:#a000ff;stop-opacity:1"/><stop offset="1" style="stop-color:#d000da;stop-opacity:1"/><stop offset="1" style="stop-color:#ff00b5;stop-opacity:0.42"/></linearGradient><linearGradient id="_Linear4" x1="0" y1="0" x2="1" y2="0" gradientUnits="userSpaceOnUse" gradientTransform="matrix(21.2485,0,0,26.477,69.8486,42.4211)"><stop offset="0" style="stop-color:#a000ff;stop-opacity:1"/><stop offset="1" style="stop-color:#d000da;stop-opacity:1"/><stop offset="1" style="stop-color:#ff00b5;stop-opacity:0.42"/></linearGradient></defs></svg>